<svg version="1.1" viewBox="0.0 0.0 720.0 189.12073490813648" fill="none" stroke="none" stroke-linecap="square" stroke-miterlimit="10" xmlns:xlink="http://www.w3.org/1999/xlink" xmlns="http://www.w3.org/2000/svg"><clipPath id="p.0"><path d="m0 0l720.0 0l0 189.12073l-720.0 0l0 -189.12073z" clip-rule="nonzero"/></clipPath><g clip-path="url(#p.0)"><path fill="#000000" fill-opacity="0.0" d="m0 0l720.0 0l0 189.12073l-720.0 0z" fill-rule="evenodd"/><g filter="url(#shadowFilter-p.1)"><use xlink:href="#p.1" transform=""/></g><defs><filter id="shadowFilter-p.1" filterUnits="userSpaceOnUse"><feGaussianBlur in="SourceAlpha" stdDeviation="2.5" result="blur"/><feComponentTransfer in="blur" color-interpolation-filters="sRGB"><feFuncR type="linear" slope="0" intercept="0.0"/><feFuncG type="linear" slope="0" intercept="0.0"/><feFuncB type="linear" slope="0" intercept="0.0"/><feFuncA type="linear" slope="0.5" intercept="0"/></feComponentTransfer></filter></defs><g id="p.1"><path fill="#000000" fill-opacity="0.0" d="m0 0l720.0 0l0 189.07086l-720.0 0z" fill-rule="evenodd"/><path fill="#000000" d="m47.561523 143.4l0 -88.390625l-33.015625 0l0 -11.828125l79.4375 0l0 11.828125l-33.15625 0l0 88.390625l-13.265625 0zm53.11914 0l0 -72.59375l11.078125 0l0 11.0q4.234375 -7.71875 7.8125 -10.171875q3.59375 -2.46875 7.90625 -2.46875q6.21875 0 12.640625 3.953125l-4.234375 11.421875q-4.515625 -2.671875 -9.015625 -2.671875q-4.046875 0 -7.265625 2.4375q-3.203125 2.421875 -4.5625 6.734375q-2.0625 6.5625 -2.0625 14.34375l0 38.015625l-12.296875 0zm94.13672 -8.953125q-6.84375 5.8125 -13.171875 8.203125q-6.3125 2.390625 -13.5625 2.390625q-11.96875 0 -18.390625 -5.84375q-6.421875 -5.84375 -6.421875 -14.9375q0 -5.328125 2.421875 -9.734375q2.421875 -4.421875 6.359375 -7.078125q3.9375 -2.671875 8.859375 -4.03125q3.609375 -0.96875 10.9375 -1.859375q14.890625 -1.765625 21.9375 -4.234375q0.0625 -2.53125 0.0625 -3.203125q0 -7.53125 -3.484375 -10.609375q-4.71875 -4.15625 -14.015625 -4.15625q-8.671875 0 -12.8125 3.046875q-4.140625 3.03125 -6.125 10.75l-12.03125 -1.640625q1.640625 -7.71875 5.40625 -12.46875q3.765625 -4.75 10.875 -7.3125q7.109375 -2.5625 16.46875 -2.5625q9.296875 0 15.109375 2.1875q5.8125 2.1875 8.546875 5.5q2.734375 3.3125 3.828125 8.375q0.609375 3.140625 0.609375 11.34375l0 16.40625q0 17.15625 0.78125 21.703125q0.796875 4.546875 3.125 8.71875l-12.859375 0q-1.90625 -3.828125 -2.453125 -8.953125zm-1.03125 -27.484375q-6.703125 2.734375 -20.09375 4.65625q-7.59375 1.09375 -10.734375 2.46875q-3.140625 1.359375 -4.859375 3.984375q-1.703125 2.625 -1.703125 5.84375q0 4.921875 3.71875 8.203125q3.734375 3.28125 10.90625 3.28125q7.109375 0 12.640625 -3.109375q5.546875 -3.109375 8.140625 -8.515625q1.984375 -4.171875 1.984375 -12.296875l0 -4.515625zm31.517578 36.4375l0 -72.59375l11.0625 0l0 10.3125q8.0 -11.953125 23.109375 -11.953125q6.5625 0 12.0625 2.359375q5.515625 2.359375 8.25 6.1875q2.734375 3.828125 3.828125 9.078125q0.671875 3.421875 0.671875 11.96875l0 44.640625l-12.296875 0l0 -44.15625q0 -7.53125 -1.4375 -11.25q-1.4375 -3.71875 -5.09375 -5.9375q-3.65625 -2.234375 -8.578125 -2.234375q-7.859375 0 -13.578125 5.0q-5.703125 4.984375 -5.703125 18.921875l0 39.65625l-12.296875 0zm72.93945 -21.671875l12.15625 -1.90625q1.03125 7.3125 5.703125 11.203125q4.6875 3.890625 13.109375 3.890625q8.46875 0 12.5625 -3.4375q4.109375 -3.453125 4.109375 -8.109375q0 -4.171875 -3.625 -6.5625q-2.53125 -1.640625 -12.578125 -4.171875q-13.53125 -3.421875 -18.765625 -5.90625q-5.21875 -2.5 -7.921875 -6.90625q-2.703125 -4.40625 -2.703125 -9.75q0 -4.84375 2.21875 -8.984375q2.21875 -4.140625 6.046875 -6.875q2.875 -2.109375 7.828125 -3.578125q4.953125 -1.46875 10.640625 -1.46875q8.53125 0 14.984375 2.46875q6.46875 2.453125 9.546875 6.65625q3.078125 4.203125 4.234375 11.234375l-12.03125 1.640625q-0.8125 -5.59375 -4.75 -8.734375q-3.921875 -3.15625 -11.109375 -3.15625q-8.46875 0 -12.09375 2.8125q-3.625 2.796875 -3.625 6.5625q0 2.390625 1.5 4.296875q1.515625 1.984375 4.71875 3.28125q1.84375 0.6875 10.875 3.140625q13.0625 3.5 18.21875 5.71875q5.15625 2.21875 8.09375 6.453125q2.9375 4.234375 2.9375 10.53125q0 6.15625 -3.59375 11.59375q-3.578125 5.421875 -10.34375 8.40625q-6.765625 2.96875 -15.3125 2.96875q-14.15625 0 -21.578125 -5.875q-7.40625 -5.890625 -9.453125 -17.4375zm101.984375 21.671875l0 -88.390625l-33.015625 0l0 -11.828125l79.4375 0l0 11.828125l-33.15625 0l0 88.390625l-13.265625 0zm53.11914 0l0 -72.59375l11.078125 0l0 11.0q4.234375 -7.71875 7.8125 -10.171875q3.59375 -2.46875 7.90625 -2.46875q6.21875 0 12.640625 3.953125l-4.234375 11.421875q-4.515625 -2.671875 -9.015625 -2.671875q-4.046875 0 -7.265625 2.4375q-3.203125 2.421875 -4.5625 6.734375q-2.0625 6.5625 -2.0625 14.34375l0 38.015625l-12.296875 0zm94.13672 -8.953125q-6.84375 5.8125 -13.171875 8.203125q-6.3125 2.390625 -13.5625 2.390625q-11.96875 0 -18.390625 -5.84375q-6.421875 -5.84375 -6.421875 -14.9375q0 -5.328125 2.421875 -9.734375q2.421875 -4.421875 6.359375 -7.078125q3.9375 -2.671875 8.859375 -4.03125q3.609375 -0.96875 10.9375 -1.859375q14.890625 -1.765625 21.9375 -4.234375q0.0625 -2.53125 0.0625 -3.203125q0 -7.53125 -3.484375 -10.609375q-4.71875 -4.15625 -14.015625 -4.15625q-8.671875 0 -12.8125 3.046875q-4.140625 3.03125 -6.125 10.75l-12.03125 -1.640625q1.640625 -7.71875 5.40625 -12.46875q3.765625 -4.75 10.875 -7.3125q7.109375 -2.5625 16.46875 -2.5625q9.296875 0 15.109375 2.1875q5.8125 2.1875 8.546875 5.5q2.734375 3.3125 3.828125 8.375q0.609375 3.140625 0.609375 11.34375l0 16.40625q0 17.15625 0.78125 21.703125q0.796875 4.546875 3.125 8.71875l-12.859375 0q-1.90625 -3.828125 -2.453125 -8.953125zm-1.03125 -27.484375q-6.703125 2.734375 -20.09375 4.65625q-7.59375 1.09375 -10.734375 2.46875q-3.140625 1.359375 -4.859375 3.984375q-1.703125 2.625 -1.703125 5.84375q0 4.921875 3.71875 8.203125q3.734375 3.28125 10.90625 3.28125q7.109375 0 12.640625 -3.109375q5.546875 -3.109375 8.140625 -8.515625q1.984375 -4.171875 1.984375 -12.296875l0 -4.515625zm78.89258 9.84375l12.09375 1.578125q-1.984375 12.5 -10.15625 19.578125q-8.171875 7.078125 -20.0625 7.078125q-14.90625 0 -23.96875 -9.734375q-9.046875 -9.75 -9.046875 -27.9375q0 -11.75 3.890625 -20.5625q3.90625 -8.828125 11.859375 -13.234375q7.96875 -4.40625 17.34375 -4.40625q11.8125 0 19.328125 5.984375q7.53125 5.96875 9.65625 16.984375l-11.96875 1.84375q-1.703125 -7.3125 -6.046875 -11.0q-4.34375 -3.703125 -10.5 -3.703125q-9.296875 0 -15.109375 6.671875q-5.8125 6.65625 -5.8125 21.078125q0 14.640625 5.609375 21.265625q5.609375 6.625 14.625 6.625q7.25 0 12.09375 -4.4375q4.859375 -4.4375 6.171875 -13.671875z" fill-rule="nonzero"/><path fill="#000000" d="m648.0322 143.4l0 -100.21875l12.3125 0l0 57.15625l29.109375 -29.53125l15.9375 0l-27.765625 26.921875l30.5625 45.671875l-15.171875 0l-24.0 -37.125l-8.671875 8.34375l0 28.78125l-12.3125 0z" fill-rule="nonzero"/></g></g></svg>