<svg width="600" height="405" xmlns="http://www.w3.org/2000/svg" xmlns:xlink="http://www.w3.org/1999/xlink" xml:space="preserve" overflow="hidden"><g transform="translate(-340 -158)"><path d="M748.742 294.005C748.742 283.931 740.576 275.765 730.503 275.765L552.633 275.765C542.559 275.765 534.393 283.931 534.393 294.005L534.393 428.87C534.393 438.944 542.559 447.11 552.633 447.11L730.503 447.11C740.576 447.11 748.742 438.944 748.742 428.87L748.742 294.005" stroke="#D2D6D9" stroke-width="1.5" fill="none"/><path d="M550.96 432.455C551.296 432.608 551.657 432.688 552.018 432.688 611.008 432.688 670.117 432.688 729.348 432.688 731.92 432.688 734.32 432.32 734.312 429.312 734.283 388.205 734.223 347.09 734.432 305.982 734.457 301.638 734.393 297.408 734.238 293.292 734.169 291.54 732.733 290.153 730.982 290.15 672.272 289.955 613.46 289.962 554.545 290.172 551.89 290.188 548.718 290.105 548.718 293.75 548.693 338.75 548.677 383.75 548.672 428.75 548.672 430.52 549.435 431.755 550.96 432.455" stroke="#D2D6D9" stroke-width="1.5" fill="none"/><path d="M605.74 325.737C605.74 313.949 596.184 304.392 584.395 304.392 572.607 304.392 563.05 313.949 563.05 325.737 563.05 337.526 572.607 347.083 584.395 347.083 596.184 347.083 605.74 337.526 605.74 325.737" stroke="#D2D6D9" stroke-width="1.5" fill="none"/><path d="M720.062 368.66C720.062 368.519 720.005 368.384 719.905 368.285L674.11 322.58C673.902 322.374 673.568 322.374 673.36 322.58L616.938 378.905C616.73 379.111 616.395 379.111 616.188 378.905L598.997 361.857C598.79 361.652 598.455 361.652 598.247 361.857L563.095 396.987C562.995 397.087 562.938 397.222 562.938 397.362L562.938 417.905C562.938 418.199 563.176 418.438 563.47 418.438L719.53 418.438C719.824 418.438 720.062 418.199 720.062 417.905L720.062 368.66" stroke="#D2D6D9" stroke-width="1.5" fill="none"/><path d="M340 158 940 158 940 563 340 563 340 158ZM748.742 294.005C748.742 283.931 740.576 275.765 730.503 275.765L552.633 275.765C542.559 275.765 534.393 283.931 534.393 294.005L534.393 428.87C534.393 438.944 542.559 447.11 552.633 447.11L730.503 447.11C740.576 447.11 748.742 438.944 748.742 428.87L748.742 294.005Z" fill="#E9EEF1"/><path d="M748.742 428.87C748.742 438.944 740.576 447.11 730.503 447.11L552.633 447.11C542.559 447.11 534.393 438.944 534.393 428.87L534.393 294.005C534.393 283.931 542.559 275.765 552.633 275.765L730.503 275.765C740.576 275.765 748.742 283.931 748.742 294.005L748.742 428.87ZM550.96 432.455C551.296 432.608 551.657 432.688 552.018 432.688 611.008 432.688 670.117 432.688 729.348 432.688 731.92 432.688 734.32 432.32 734.312 429.312 734.283 388.205 734.223 347.09 734.432 305.982 734.457 301.638 734.393 297.408 734.238 293.292 734.169 291.54 732.733 290.153 730.982 290.15 672.272 289.955 613.46 289.962 554.545 290.172 551.89 290.188 548.718 290.105 548.718 293.75 548.693 338.75 548.677 383.75 548.672 428.75 548.672 430.52 549.435 431.755 550.96 432.455Z" fill="#BABEC1"/><path d="M550.96 432.455C549.435 431.755 548.672 430.52 548.672 428.75 548.677 383.75 548.693 338.75 548.718 293.75 548.718 290.105 551.89 290.188 554.545 290.172 613.46 289.962 672.272 289.955 730.982 290.15 732.733 290.153 734.169 291.54 734.238 293.292 734.393 297.408 734.458 301.638 734.432 305.982 734.223 347.09 734.283 388.205 734.312 429.312 734.32 432.32 731.92 432.688 729.348 432.688 670.117 432.688 611.008 432.688 552.018 432.688 551.657 432.688 551.296 432.608 550.96 432.455ZM605.74 325.737C605.74 313.949 596.184 304.392 584.395 304.392 572.607 304.392 563.05 313.949 563.05 325.737 563.05 337.526 572.607 347.083 584.395 347.083 596.184 347.083 605.74 337.526 605.74 325.737ZM720.062 368.66C720.062 368.519 720.005 368.384 719.905 368.285L674.11 322.58C673.902 322.374 673.568 322.374 673.36 322.58L616.938 378.905C616.73 379.111 616.395 379.111 616.188 378.905L598.997 361.857C598.79 361.652 598.455 361.652 598.247 361.857L563.095 396.987C562.995 397.087 562.938 397.222 562.938 397.362L562.938 417.905C562.938 418.199 563.176 418.438 563.47 418.438L719.53 418.438C719.824 418.438 720.062 418.199 720.062 417.905L720.062 368.66Z" fill="#E9EEF1"/><path d="M605.74 325.737C605.74 337.526 596.184 347.083 584.395 347.083 572.607 347.083 563.05 337.526 563.05 325.737 563.05 313.949 572.607 304.392 584.395 304.392 596.184 304.392 605.74 313.949 605.74 325.737Z" fill="#BABEC1"/><path d="M720.062 368.66 720.062 417.905C720.062 418.199 719.824 418.438 719.53 418.438L563.47 418.438C563.176 418.438 562.938 418.199 562.938 417.905L562.938 397.362C562.938 397.222 562.995 397.087 563.095 396.987L598.247 361.857C598.455 361.652 598.79 361.652 598.997 361.857L616.188 378.905C616.395 379.111 616.73 379.111 616.938 378.905L673.36 322.58C673.568 322.374 673.902 322.374 674.11 322.58L719.905 368.285C720.005 368.384 720.062 368.519 720.062 368.66Z" fill="#BABEC1"/></g></svg>