<svg version="1.1" viewBox="0.0 0.0 256.0 256.0" fill="none" stroke="none" stroke-linecap="square" stroke-miterlimit="10" xmlns:xlink="http://www.w3.org/1999/xlink" xmlns="http://www.w3.org/2000/svg"><clipPath id="p.0"><path d="m0 0l256.0 0l0 256.0l-256.0 0l0 -256.0z" clip-rule="nonzero"/></clipPath><g clip-path="url(#p.0)"><path fill="#000000" fill-opacity="0.0" d="m0 0l256.0 0l0 256.0l-256.0 0z" fill-rule="evenodd"/><g filter="url(#shadowFilter-p.1)"><use xlink:href="#p.1" transform=""/></g><defs><filter id="shadowFilter-p.1" filterUnits="userSpaceOnUse"><feGaussianBlur in="SourceAlpha" stdDeviation="25.0" result="blur"/><feComponentTransfer in="blur" color-interpolation-filters="sRGB"><feFuncR type="linear" slope="0" intercept="0.2901961"/><feFuncG type="linear" slope="0" intercept="0.5254902"/><feFuncB type="linear" slope="0" intercept="0.9098039"/><feFuncA type="linear" slope="0.5" intercept="0"/></feComponentTransfer></filter></defs><g id="p.1"><path fill="#4a86e8" d="m32.0 128.0l0 0c0 -53.019333 42.980667 -96.0 96.0 -96.0l0 0c25.460785 0 49.878754 10.114258 67.88225 28.117748c18.003494 18.00349 28.117752 42.421467 28.117752 67.88225l0 0c0 53.019333 -42.980667 96.0 -96.0 96.0l0 0c-53.019333 0 -96.0 -42.980667 -96.0 -96.0z" fill-rule="evenodd"/><path stroke="#ffffff" stroke-width="8.0" stroke-linejoin="round" stroke-linecap="butt" d="m32.0 128.0l0 0c0 -53.019333 42.980667 -96.0 96.0 -96.0l0 0c25.460785 0 49.878754 10.114258 67.88225 28.117748c18.003494 18.00349 28.117752 42.421467 28.117752 67.88225l0 0c0 53.019333 -42.980667 96.0 -96.0 96.0l0 0c-53.019333 0 -96.0 -42.980667 -96.0 -96.0z" fill-rule="evenodd"/></g></g></svg>