<svg version="1.1" viewBox="0.0 0.0 512.0 512.0" fill="none" stroke="none" stroke-linecap="square" stroke-miterlimit="10" xmlns:xlink="http://www.w3.org/1999/xlink" xmlns="http://www.w3.org/2000/svg"><clipPath id="p.0"><path d="m0 0l512.0 0l0 512.0l-512.0 0l0 -512.0z" clip-rule="nonzero"/></clipPath><g clip-path="url(#p.0)"><path fill="#000000" fill-opacity="0.0" d="m0 0l512.0 0l0 512.0l-512.0 0z" fill-rule="evenodd"/><g filter="url(#shadowFilter-p.1)"><use xlink:href="#p.1" transform=""/></g><defs><filter id="shadowFilter-p.1" filterUnits="userSpaceOnUse"><feGaussianBlur in="SourceAlpha" stdDeviation="50.0" result="blur"/><feComponentTransfer in="blur" color-interpolation-filters="sRGB"><feFuncR type="linear" slope="0" intercept="0.2901961"/><feFuncG type="linear" slope="0" intercept="0.5254902"/><feFuncB type="linear" slope="0" intercept="0.9098039"/><feFuncA type="linear" slope="0.5" intercept="0"/></feComponentTransfer></filter></defs><g id="p.1"><path fill="#4a86e8" d="m64.0 256.0l0 0c0 -106.038666 85.961334 -192.0 192.0 -192.0l0 0c50.92157 0 99.75751 20.228516 135.7645 56.235497c36.00699 36.00698 56.235504 84.84293 56.235504 135.7645l0 0c0 106.038666 -85.961334 192.0 -192.0 192.0l0 0c-106.038666 0 -192.0 -85.961334 -192.0 -192.0z" fill-rule="evenodd"/><path stroke="#ffffff" stroke-width="16.0" stroke-linejoin="round" stroke-linecap="butt" d="m64.0 256.0l0 0c0 -106.038666 85.961334 -192.0 192.0 -192.0l0 0c50.92157 0 99.75751 20.228516 135.7645 56.235497c36.00699 36.00698 56.235504 84.84293 56.235504 135.7645l0 0c0 106.038666 -85.961334 192.0 -192.0 192.0l0 0c-106.038666 0 -192.0 -85.961334 -192.0 -192.0z" fill-rule="evenodd"/></g></g></svg>